<svg xmlns="http://www.w3.org/2000/svg" enable-background="new 0 0 65 65" viewBox="0 0 65 65" id="barcode-scanning">
  <path d="M59.2,53.1l-6.3-6.4c1.7-3.5,1.1-7.8-1.8-10.6c-3.7-3.7-9.6-3.7-13.3,0c-1.4,1.4-2.3,3.1-2.6,5c-0.5,3,0.4,6.1,2.6,8.2
			c2.8,2.8,7.1,3.5,10.7,1.8l6.4,6.3c0.1,0.1,0.3,0.2,0.5,0.2s0.4-0.1,0.5-0.2l3.3-3.3C59.5,53.9,59.5,53.4,59.2,53.1z M39.7,47.5
			c-1.5-1.5-2.2-3.7-1.9-5.9c0.2-1.4,0.9-2.6,1.9-3.6c2.6-2.6,6.8-2.6,9.5,0c2.1,2.1,2.6,5.4,1.1,8C48.2,49.8,42.9,50.6,39.7,47.5z"></path>
  <path d="M60,7.3H5c-2.1,0-3.8,1.7-3.8,3.8v27.3C1.3,40.3,2.9,42,5,42h28.5c0-0.4,0.1-0.8,0.1-1.1c0.4-2.2,1.4-4.3,3-5.8
			c1.7-1.7,3.9-2.8,6.2-3.1V12h1.5v19.8c1,0,2,0.1,3,0.4V12h1.5v20.3h-1.5c1.8,0.5,3.4,1.5,4.7,2.8c1.6,1.6,2.7,3.6,3,5.9
			c0.1,0.4,0.1,0.7,0.1,1.1H60c2.1,0,3.8-1.7,3.8-3.8V11C63.8,8.9,62.1,7.3,60,7.3z M8.7,37.3H7.2V12h1.5V37.3z M13.2,32.3h-1.5V12
			h1.5V32.3z M17.6,32.3h-1.5V12h1.5V32.3z M22.1,32.3h-1.5V12h1.5V32.3z M26.5,32.3H25V12h1.5V32.3z M31,32.3h-1.5V12H31V32.3z
			 M35.5,32.3H34V12h1.5V32.3z M39.9,32.3h-1.5V12h1.5V32.3z M53.3,32.3h-1.5V12h1.5V32.3z M57.8,37.3h-1.5V12h1.5V37.3z"></path>
</svg>
